<svg id="b" xmlns="http://www.w3.org/2000/svg" viewBox="0 0 267.6 432.3">
  <defs>
    <style>
      @media (prefers-color-scheme: light) {
        :root {
          --primary: oklch(80.27% 0.05 245.74);
          --secondary: oklch(54.3% 0.159 8.98);
        }
      }

      @media (prefers-color-scheme: dark) {
        :root {
          --primary: oklch(75.87% 0.1354 182.58);
          --secondary: oklch(52.82% 0.1905 340.37);
        }
      }

      .int { fill: var(--primary); }

      .bang {
        fill: var(--secondary);
        stroke: var(--secondary);
        stroke-width: 10px;
        stroke-linejoin: round;
      }
    </style>
  </defs>
  <path class="int" d="M267.6,112.2c0,31.6-11.1,58.41-33.3,80.4-22.2,22-51.7,39.81-88.5,53.4l2.4-33.6c15.2-8,28.7-21.39,40.5-40.2,11.79-18.8,17.7-40.59,17.7-65.4s-6.7-42.39-20.1-56.4c-13.41-14-33.1-21-59.1-21-17.2,0-31.6,4-43.2,12-11.61,8.01-20.2,18.3-25.8,30.9-5.61,12.6-8.4,25.9-8.4,39.9-14.4,0-26.31-3.69-35.7-11.1C4.7,93.7,0,83.61,0,70.8c0-12,4.59-23.4,13.8-34.2,9.2-10.8,22.89-19.59,41.1-26.4C73.1,3.4,95.4,0,121.8,0s52.4,4.3,74.4,12.9c21.99,8.61,39.39,21.21,52.2,37.8,12.8,16.6,19.2,37.11,19.2,61.5Z"/>
  <path class="bang" d="M155.29,97.9c-2.36,38.17-4.73,76.33-7.09,114.5l-2.4,33.6-3.82,61.64c-.51,8.21-6.88,15.08-15.09,15.62-.36.02-.72.04-1.09.04s-.74-.01-1.11-.03c-8.28-.46-14.76-7.38-15.27-15.67l-12.71-209.53c-1.02-16.75,11.89-31.44,28.67-31.77.47-.01.94-.01,1.42,0,.46.01.91.03,1.36.06,16.12,1.09,28.13,15.41,27.13,31.54ZM91.8,398.3c0,18.78,15.22,34,34,34s34-15.22,34-34-15.22-34-34-34-34,15.22-34,34Z"/>
</svg>