<svg id="b" xmlns="http://www.w3.org/2000/svg" viewBox="0 0 256 256">
  <defs>
    <style>
      @media (prefers-color-scheme: light) {
        :root {
          --primary: oklch(80.27% 0.05 245.74);
          --secondary: oklch(54.3% 0.159 8.98);
        }
      }

      @media (prefers-color-scheme: dark) {
        :root {
          --primary: oklch(75.87% 0.1354 182.58);
          --secondary: oklch(52.82% 0.1905 340.37);
        }
      }

      .int { fill: var(--primary); }

      .bang {
        fill: var(--secondary);
        stroke: var(--secondary);
        stroke-width: 10px;
        stroke-linejoin: round;
      }
    </style>
  </defs>
  <path class="int" d="m207.2,66.4c0,18.7-6.6,34.6-19.7,47.6-13.1,13-30.6,23.6-52.4,31.6l1.4-19.9c9-4.7,17-12.7,24-23.8,7-11.1,10.5-24,10.5-38.7s-4-25.1-11.9-33.4c-7.9-8.3-19.6-12.4-35-12.4s-18.7,2.4-25.6,7.1c-6.9,4.7-12,10.8-15.3,18.3-3.3,7.5-5,15.3-5,23.6-8.5,0-15.6-2.2-21.1-6.6-5.6-4.4-8.3-10.4-8.3-17.9s2.7-13.9,8.2-20.3c5.4-6.4,13.6-11.6,24.3-15.6C92.1,2,105.3,0,120.9,0s31,2.5,44.1,7.6c13,5.1,23.3,12.6,30.9,22.4,7.6,9.8,11.4,22,11.4,36.4Z"/>
  <path class="bang" d="m140.7,58c-1.4,22.6-2.8,45.2-4.2,67.8l-1.4,19.9-2.3,36.5c-.3,4.9-4.1,8.9-8.9,9.2-.2,0-.4,0-.6,0s-.4,0-.7,0c-4.9-.3-8.7-4.4-9-9.3l-7.5-124.1c-.6-9.9,7-18.6,17-18.8.3,0,.6,0,.8,0,.3,0,.5,0,.8,0,9.5.6,16.7,9.1,16.1,18.7Zm-37.6,177.9c0,11.1,9,20.1,20.1,20.1s20.1-9,20.1-20.1-9-20.1-20.1-20.1-20.1,9-20.1,20.1Z"/>
</svg>