<svg id="auto-mode" xmlns="http://www.w3.org/2000/svg" viewBox="0 0 512 512"><path d="M276.25,478.75c0,11.18-9.07,20.25-20.25,20.25s-20.25-9.07-20.25-20.25,9.07-20.26,20.25-20.26,20.25,9.07,20.25,20.26ZM256,94c-89.47,0-162,72.53-162,162s72.53,162,162,162c12.32,0,24.33-1.38,35.86-3.99-.88-1.47-1.69-3.01-2.45-4.61-4.24-8.85-6.31-19.54-6.31-32.63,0-12.09,2.35-24.2,6.98-36,4.33-11.01,10.24-21.51,17.59-31.21,7.23-9.53,15.52-18.07,24.67-25.41,9.32-7.47,19.21-13.48,29.41-17.85,11.27-4.83,22.57-7.28,33.6-7.28,5.18,0,10.33.63,15.32,1.88,2.42.6,4.82,1.36,7.17,2.26.11-2.37.16-4.76.16-7.16,0-89.47-72.53-162-162-162ZM399.22,84.16c-.18.17-.34.33-.5.5-7.77,8.04-7.55,20.86.5,28.63,8.04,7.77,20.86,7.55,28.63-.5,7.58-7.85,7.58-20.28,0-28.13-7.77-8.05-20.58-8.26-28.63-.5ZM256,53.51c11.18,0,20.25-9.07,20.25-20.26s-9.07-20.25-20.25-20.25-20.25,9.07-20.25,20.25,9.07,20.26,20.25,20.26ZM112.28,112.79c8.05-7.76,8.27-20.58.5-28.63-.16-.17-.32-.33-.5-.49-8.04-7.77-20.86-7.56-28.63.49-7.76,8.04-7.55,20.87.5,28.63,7.86,7.59,20.29,7.59,28.13,0ZM84.16,399.22c-.17.16-.33.32-.49.5-7.77,8.04-7.56,20.86.49,28.63,8.04,7.76,20.87,7.55,28.63-.5,7.59-7.86,7.59-20.29,0-28.13-7.76-8.05-20.58-8.27-28.63-.5ZM33.25,235.75c-11.18,0-20.25,9.07-20.25,20.25s9.07,20.25,20.25,20.25,20.26-9.07,20.26-20.25-9.07-20.25-20.26-20.25ZM478.75,235.75c-11.19,0-20.26,9.07-20.26,20.25s9.07,20.25,20.26,20.25,20.25-9.07,20.25-20.25-9.07-20.25-20.25-20.25ZM446.52,382.52c-2.54,4.25-5.64,8.5-9.29,12.75-4.59,5.34-9.79,9.75-15.63,13.25-5.83,3.5-12,5.25-18.5,5.25-7,0-12.54-2.29-16.62-6.87-2.63-2.94-4.48-6.62-5.55-11.05-.71-2.93-4.28-4-6.46-1.91-1.54,1.49-3.12,2.93-4.74,4.33-5.59,4.84-11.29,8.63-17.13,11.38-5.83,2.75-11.58,4.12-17.25,4.12-4.66,0-9.08-1.16-13.25-3.5-4.16-2.33-7.54-6.2-10.12-11.62-2.59-5.41-3.88-12.71-3.88-21.88s1.75-17.95,5.25-26.87c3.5-8.91,8.25-17.33,14.25-25.25,6-7.91,12.79-14.91,20.38-21,7.58-6.08,15.46-10.88,23.62-14.38,8.17-3.5,16.09-5.25,23.75-5.25,3.17,0,6.25.38,9.25,1.13s5.92,1.87,8.75,3.37c1.33.7,2.6,1.49,3.81,2.38,1.12.81,2.57.99,3.84.44l14.81-6.43c1.26-.55,2.72-.38,3.83.43l.92.68c1.24.91,1.82,2.47,1.47,3.98l-19.43,84.52c-.5,2-.91,3.72-1.25,5.13-.33,1.42-.5,2.79-.5,4.12,0,1.67.34,2.92,1,3.75.67.84,1.67,1.25,3,1.25,2,0,4.13-1.28,6.38-3.87,1.79-2.05,4.03-4.77,6.72-8.15,1.23-1.55,3.43-1.91,5.1-.85l2.21,1.4c1.75,1.12,2.33,3.43,1.26,5.22ZM392.38,304.78s-.02,0-.03-.01c-3-1-6-1.5-9-1.5-1.5,0-2.96.17-4.37.5-1.42.34-2.88.97-4.38,1.88-1.5.92-3.08,2.12-4.75,3.62-3.83,3.34-7.16,8.22-10,14.63-2.83,6.42-5.04,13.17-6.62,20.25-1.59,7.09-2.38,13.29-2.38,18.62,0,8,1.17,13.67,3.5,17,2.34,3.34,5.59,5,9.75,5,2.34,0,4.71-.62,7.13-1.87,2.41-1.25,4.83-2.79,7.25-4.63.26-.19.51-.39.77-.58.73-.56,1.24-1.36,1.43-2.26l14.21-66.18c.41-1.91-.66-3.85-2.51-4.47Z"/></svg>