<svg id="light-mode" xmlns="http://www.w3.org/2000/svg" viewBox="0 0 512 512"><path d="M418,256c0,89.47-72.53,162-162,162s-162-72.53-162-162,72.53-162,162-162,162,72.53,162,162M276.25,33.25c0,11.18-9.07,20.25-20.25,20.25s-20.25-9.07-20.25-20.25,9.07-20.25,20.25-20.25,20.25,9.07,20.25,20.25M276.25,478.75c0,11.18-9.07,20.25-20.25,20.25s-20.25-9.07-20.25-20.25,9.07-20.25,20.25-20.25,20.25,9.07,20.25,20.25M478.75,276.25c-11.18,0-20.25-9.07-20.25-20.25s9.07-20.25,20.25-20.25,20.25,9.07,20.25,20.25-9.07,20.25-20.25,20.25M33.25,276.25c-11.18,0-20.25-9.07-20.25-20.25s9.07-20.25,20.25-20.25,20.25,9.07,20.25,20.25-9.07,20.25-20.25,20.25M427.85,112.79c-7.77,8.05-20.59,8.27-28.63.5-8.05-7.77-8.27-20.59-.5-28.63.16-.17.33-.34.5-.5,8.05-7.77,20.86-7.55,28.63.5,7.58,7.84,7.58,20.29,0,28.14M112.79,427.85c-7.77,8.05-20.59,8.27-28.63.5-8.05-7.77-8.27-20.59-.5-28.63.16-.17.33-.34.5-.5,8.05-7.77,20.86-7.55,28.63.5,7.58,7.84,7.58,20.29,0,28.14M399.21,427.85c-8.05-7.77-8.27-20.59-.5-28.63,7.77-8.05,20.59-8.27,28.63-.5.17.16.34.33.5.5,7.77,8.05,7.55,20.86-.5,28.63-7.84,7.58-20.29,7.58-28.14,0M84.15,112.79c-8.05-7.77-8.27-20.59-.5-28.63,7.77-8.05,20.59-8.27,28.63-.5.17.16.34.33.5.5,7.77,8.05,7.55,20.86-.5,28.63-7.84,7.58-20.29,7.58-28.14,0"/></svg>