<svg version="1.1" xmlns="http://www.w3.org/2000/svg" viewBox="0 0 44 44">
<g>
	<path d="M39.9,39.5H10c-3,0-5.5-2.5-5.5-5.5V4.1c0-2.3,1.1-3.1,1.8-3.4c0.7-0.3,2-0.5,3.6,1.1l32.3,32.3c1.6,1.6,1.4,3,1.1,3.6
		C43,38.4,42.2,39.5,39.9,39.5z M40.5,36.9L40.5,36.9L40.5,36.9z M7.5,3.7c0,0.1,0,0.2,0,0.3V34c0,1.4,1.1,2.5,2.5,2.5h29.9
		c0.1,0,0.2,0,0.3,0c-0.1-0.1-0.1-0.2-0.2-0.3l0,0L7.8,4C7.7,3.9,7.6,3.8,7.5,3.7z"/>
	<path d="M23,31.5h-7c-1.9,0-3.5-1.6-3.5-3.5v-7c0-1.6,0.9-2.2,1.3-2.4c0.4-0.2,1.5-0.4,2.6,0.7l8.1,8.1c1.2,1.2,0.9,2.2,0.7,2.6
		C25.2,30.6,24.6,31.5,23,31.5z M22.6,29.7L22.6,29.7L22.6,29.7z M15.5,22.7V28c0,0.3,0.2,0.5,0.5,0.5h5.3L15.5,22.7z M23.1,28.5
		L23.1,28.5L23.1,28.5z"/>
</g>
</svg>
