<svg xmlns="http://www.w3.org/2000/svg" viewBox="0 0 24 24"><path d="M 19,9.5316034 A 0.75,0.75 0 0 1 18.25,10.281603 H 12 a 0.5,0.5 0 0 0 0,1 h 2.533 l 0.004,0.086 c 0.012,0.317 0.008,0.637 -0.027,0.816 -0.027,0.134 -0.096,0.294 -0.182,0.448 -0.042,0.077 -0.147,0.15 -0.314,0.15 H 12 a 0.5,0.5 0 1 0 0,1 h 1.565 l 0.01,0.106 c 0.024,0.316001 0.01,0.584001 -0.04,0.708001 -0.046,0.118 -0.207,0.3 -0.43,0.486 -0.096,0.081 -0.19,0.15 -0.259,0.2 H 11.5 a 0.50000015,0.50000015 0 0 0 0,1 h 1 v 0.342 a 1,1 0 0 1 -1.1,0.995 l -2.715,-0.271 a 2.5,2.5 0 0 1 -0.991,-0.317 l -2.442,-1.395 A 0.5,0.5 0 0 1 5,15.201604 V 8.8166034 a 0.5,0.5 0 0 1 0.223,-0.416 l 2.15,-1.433 a 1.5,1.5 0 0 1 0.666,-0.243 l 3.105,-0.345 a 0.5,0.5 0 0 1 0.546,0.399 l 0.2,1.003 H 11 a 0.5,0.5 0 0 0 0,1 h 7.25 a 0.75,0.75 0 0 1 0.75,0.75 m -3.466,1.7499996 h 2.716 a 1.75,1.75 0 1 0 0,-3.4999996 h -5.34 l -0.24,-1.2 a 1.5,1.5 0 0 0 -1.636,-1.196 l -3.106,0.345 a 2.5,2.5 0 0 0 -1.11,0.405 l -2.15,1.433 A 1.5,1.5 0 0 0 4,8.8166034 v 6.3850006 a 1.5,1.5 0 0 0 0.756,1.302 l 2.441,1.395 a 3.5,3.5 0 0 0 1.389,0.444 l 2.715,0.271 a 2,2 0 0 0 2.199,-1.99 v -0.581 a 5,5 0 0 0 0.248,-0.195 c 0.229,-0.191 0.568,-0.51 0.716,-0.88 0.146,-0.364 0.132,-0.846 0.108,-1.158001 l -0.012,-0.132 a 1.26,1.26 0 0 0 0.642,-0.56 2.6,2.6 0 0 0 0.288,-0.738 c 0.062,-0.31 0.058,-0.739 0.046,-1.05 z m -2.025,2.094"/></svg>
