<?xml version="1.0" encoding="UTF-8"?>
<svg xmlns="http://www.w3.org/2000/svg" viewBox="0 0 16 16">
  <path d="m9.48,4.3c1.06-1.65,3.25-2.12,4.89-1.07,1.02.65,1.63,1.79,1.63,3,0,1.96-1.59,3.54-3.55,3.54-.67,0-1.33-.19-1.9-.55.28.83.8,1.71,1.65,2.59.34.35.33.91-.02,1.25-.35.34-.91.33-1.25-.02-3.16-3.28-2.75-6.84-1.45-8.75h0ZM.97,4.3c1.06-1.65,3.25-2.12,4.89-1.07,1.02.65,1.63,1.79,1.63,3,0,1.96-1.59,3.54-3.55,3.54-.67,0-1.33-.19-1.9-.55.28.83.8,1.71,1.65,2.59.34.35.33.91-.02,1.25s-.91.33-1.25-.02C-.74,9.78-.33,6.22.97,4.31h0Z"/>
</svg>